<?xml version="1.0" standalone="no"?>
<!DOCTYPE svg PUBLIC "-//W3C//DTD SVG 20010904//EN"
 "http://www.w3.org/TR/2001/REC-SVG-20010904/DTD/svg10.dtd">
<svg version="1.0" xmlns="http://www.w3.org/2000/svg"
 width="100.000000pt" height="100.000000pt" viewBox="0 0 100.000000 100.000000"
 preserveAspectRatio="xMidYMid meet">

<g transform="translate(0.000000,100.000000) scale(0.100000,-0.100000)"
fill="#000000" stroke="none">
<path d="M679 771 c-8 -12 -19 -17 -33 -13 -12 3 -19 2 -16 -1 13 -14 37 -10
58 11 12 12 18 22 12 22 -5 0 -15 -8 -21 -19z"/>
<path d="M758 772 c9 -10 19 -17 21 -16 6 5 -20 34 -30 34 -5 0 -1 -8 9 -18z"/>
<path d="M568 710 l-33 -50 -112 0 c-88 0 -115 -3 -127 -16 -13 -13 -16 -42
-16 -160 0 -136 -1 -144 -20 -144 -10 0 -24 -9 -30 -20 -6 -11 -17 -20 -24
-20 -8 0 -19 -7 -26 -15 -9 -10 -9 -15 -1 -15 6 0 11 5 11 10 0 6 8 10 18 10
9 0 23 9 30 20 13 22 58 27 65 8 2 -7 16 -13 32 -13 17 0 32 -7 39 -20 6 -11
18 -25 26 -32 21 -17 2 -46 -36 -54 l-29 -7 27 -1 c35 -1 61 25 54 55 l-6 24
144 0 c118 0 147 3 160 16 13 13 16 44 16 179 0 198 2 195 -106 195 -41 0 -74
2 -74 5 0 8 51 80 63 87 9 6 9 8 0 8 -7 0 -27 -22 -45 -50z m136 -76 c23 -23
23 -315 0 -338 -13 -13 -42 -16 -162 -16 -137 0 -149 1 -166 21 -11 14 -25 19
-38 15 -39 -10 -47 18 -48 166 0 111 3 139 16 152 23 24 375 24 398 0z"/>
<path d="M380 549 c-10 -17 -14 -18 -28 -7 -15 12 -16 11 -3 -4 7 -10 17 -15
22 -12 11 6 32 44 25 44 -3 0 -10 -9 -16 -21z"/>
<path d="M468 533 c23 -2 59 -2 80 0 20 2 1 4 -43 4 -44 0 -61 -2 -37 -4z"/>
<path d="M628 533 c12 -2 30 -2 40 0 9 3 -1 5 -23 4 -22 0 -30 -2 -17 -4z"/>
<path d="M380 459 c-10 -17 -14 -18 -28 -7 -15 12 -16 11 -3 -4 7 -10 17 -15
22 -12 11 6 32 44 25 44 -3 0 -10 -9 -16 -21z"/>
<path d="M443 443 c9 -2 25 -2 35 0 9 3 1 5 -18 5 -19 0 -27 -2 -17 -5z"/>
<path d="M553 443 c26 -2 67 -2 90 0 23 2 2 3 -48 3 -49 0 -68 -1 -42 -3z"/>
<path d="M380 379 c-10 -17 -14 -18 -28 -7 -15 12 -16 11 -3 -4 7 -10 17 -15
22 -12 11 6 32 44 25 44 -3 0 -10 -9 -16 -21z"/>
<path d="M483 363 c32 -2 81 -2 110 0 29 2 3 3 -58 3 -60 0 -84 -1 -52 -3z"/>
<path d="M780 731 c0 -5 8 -7 18 -4 10 2 24 -3 31 -11 8 -9 19 -16 27 -16 7 0
20 -10 28 -22 9 -12 16 -18 16 -12 0 13 -33 44 -47 44 -6 0 -16 7 -23 15 -14
16 -50 21 -50 6z"/>
<path d="M882 630 c-10 -16 -25 -20 -80 -22 -66 -2 -66 -2 -13 -5 67 -5 97 2
105 23 9 24 2 26 -12 4z"/>
<path d="M135 251 c-14 -45 19 -66 91 -58 35 3 34 4 -12 5 -61 2 -85 22 -66
53 7 10 8 19 3 19 -5 0 -12 -8 -16 -19z"/>
</g>
</svg>
